<svg width="208" height="26" viewBox="0 0 208 26" fill="none" xmlns="http://www.w3.org/2000/svg">
<g clip-path="url(#clip0_654_10451)">
<path d="M11.0168 5.90259C8.39528 5.90259 6.37294 6.80141 4.94981 8.6365V0.298584H0.118652V25.1523H4.94981V22.9427C6.37294 24.7779 8.39528 25.6766 11.0168 25.6766C13.526 25.6766 15.6982 24.7029 17.4958 22.7929C19.2561 20.883 20.1548 18.561 20.1548 15.7896C20.1548 13.0182 19.2561 10.6588 17.4958 8.74884C15.6982 6.83886 13.526 5.90259 11.0168 5.90259ZM6.41038 19.5721C5.43666 18.5984 4.94981 17.3251 4.94981 15.7896C4.94981 14.2541 5.43666 12.9808 6.41038 11.9696C7.38412 10.9959 8.61999 10.509 10.118 10.509C11.616 10.509 12.8519 10.9959 13.8631 11.9696C14.8368 12.9808 15.3237 14.2541 15.3237 15.7896C15.3237 17.3251 14.8368 18.5984 13.8631 19.5721C12.8519 20.5833 11.616 21.0701 10.118 21.0701C8.61999 21.0701 7.38412 20.5833 6.41038 19.5721Z" fill="url(#paint0_linear_654_10451)"/>
<path d="M30.6445 8.48C29.1839 6.64491 27.1615 5.74609 24.54 5.74609C22.0309 5.74609 19.8961 6.68237 18.136 8.59235C16.3383 10.5023 15.4395 12.8618 15.4395 15.6331C15.4395 18.4045 16.3383 20.7265 18.136 22.6365C19.8961 24.5464 22.0309 25.5201 24.54 25.5201C27.1615 25.5201 29.1839 24.6212 30.6445 22.7862V24.9958H35.4757V6.27041H30.6445V8.48ZM21.7312 19.4156C20.7574 18.4419 20.2706 17.1686 20.2706 15.6331C20.2706 14.0976 20.7574 12.8243 21.7312 11.8131C22.7049 10.8394 23.9409 10.3525 25.4389 10.3525C26.9369 10.3525 28.1728 10.8394 29.1839 11.8131C30.1575 12.8243 30.6445 14.0976 30.6445 15.6331C30.6445 17.1686 30.1575 18.4419 29.1839 19.4156C28.1728 20.4269 26.9369 20.9136 25.4389 20.9136C23.9409 20.9136 22.7049 20.4269 21.7312 19.4156Z" fill="url(#paint1_linear_654_10451)"/>
<path d="M41.0745 5.90259C38.5278 5.90259 36.6553 6.76395 35.4943 8.52414V0.298584H30.6631V25.1523H35.4943V15.0406C35.4943 13.5051 35.8687 12.3441 36.6177 11.5577C37.3669 10.7712 38.3779 10.3967 39.6139 10.3967C40.7373 10.3967 41.6362 10.7337 42.3102 11.3704C42.9845 12.0445 43.3215 13.0182 43.3215 14.2541V25.1523H48.1527V13.6549C48.1527 11.2206 47.4785 9.34806 46.1678 7.96238C44.8195 6.57671 43.1342 5.90259 41.0745 5.90259Z" fill="url(#paint2_linear_654_10451)"/>
</g>
<path opacity="0.5" d="M62.2828 24.958C61.5068 24.958 60.8508 24.834 60.3148 24.586C59.7868 24.338 59.3828 23.998 59.1028 23.566C58.8228 23.126 58.6828 22.63 58.6828 22.078H60.3508C60.3508 22.31 60.4148 22.538 60.5428 22.762C60.6708 22.978 60.8748 23.154 61.1548 23.29C61.4428 23.426 61.8188 23.494 62.2828 23.494C62.6988 23.494 63.0468 23.434 63.3268 23.314C63.6068 23.194 63.8148 23.038 63.9508 22.846C64.0868 22.646 64.1548 22.422 64.1548 22.174C64.1548 21.862 64.0228 21.614 63.7588 21.43C63.4948 21.238 63.0868 21.118 62.5348 21.07L61.7668 21.01C60.9268 20.938 60.2548 20.678 59.7508 20.23C59.2548 19.774 59.0068 19.174 59.0068 18.43C59.0068 17.87 59.1388 17.39 59.4028 16.99C59.6668 16.582 60.0348 16.27 60.5068 16.054C60.9868 15.83 61.5468 15.718 62.1868 15.718C62.8508 15.718 63.4228 15.834 63.9028 16.066C64.3828 16.298 64.7548 16.626 65.0188 17.05C65.2828 17.466 65.4148 17.958 65.4148 18.526H63.7468C63.7468 18.286 63.6868 18.066 63.5668 17.866C63.4548 17.658 63.2828 17.494 63.0508 17.374C62.8268 17.246 62.5388 17.182 62.1868 17.182C61.8508 17.182 61.5708 17.238 61.3468 17.35C61.1228 17.462 60.9548 17.614 60.8428 17.806C60.7308 17.998 60.6748 18.206 60.6748 18.43C60.6748 18.702 60.7748 18.942 60.9748 19.15C61.1748 19.35 61.4908 19.466 61.9228 19.498L62.6908 19.57C63.3148 19.618 63.8628 19.75 64.3348 19.966C64.8068 20.182 65.1708 20.474 65.4268 20.842C65.6908 21.21 65.8228 21.654 65.8228 22.174C65.8228 22.726 65.6788 23.214 65.3908 23.638C65.1028 24.054 64.6908 24.378 64.1548 24.61C63.6268 24.842 63.0028 24.958 62.2828 24.958ZM67.3808 24.73V15.97H69.0488V24.73H67.3808ZM68.8088 24.73V23.29H72.7808V24.73H68.8088ZM68.8088 20.998V19.558H72.4688V20.998H68.8088ZM68.8088 17.41V15.97H72.6848V17.41H68.8088ZM74.5292 24.73V15.97H77.3252L81.0092 23.314H81.4052L81.1652 23.53V15.97H82.7732V24.73H79.9652L76.2812 17.386H75.8732L76.1132 17.17V24.73H74.5292ZM86.6635 24.73V17.23H88.3675V24.73H86.6635ZM84.1315 17.47V15.97H90.8995V17.47H84.1315ZM92.2597 24.73V15.97H93.9277V24.73H92.2597ZM93.6877 24.73V23.29H97.6597V24.73H93.6877ZM93.6877 20.998V19.558H97.3477V20.998H93.6877ZM93.6877 17.41V15.97H97.5637V17.41H93.6877ZM99.4081 24.73V15.97H102.204L105.888 23.314H106.284L106.044 23.53V15.97H107.652V24.73H104.844L101.16 17.386H100.752L100.992 17.17V24.73H99.4081ZM113.762 24.958C112.97 24.958 112.29 24.818 111.722 24.538C111.154 24.258 110.69 23.894 110.33 23.446C109.978 22.998 109.718 22.51 109.55 21.982C109.382 21.454 109.298 20.946 109.298 20.458V20.194C109.298 19.65 109.382 19.114 109.55 18.586C109.726 18.058 109.994 17.578 110.354 17.146C110.714 16.714 111.17 16.37 111.722 16.114C112.282 15.85 112.942 15.718 113.702 15.718C114.494 15.718 115.182 15.862 115.766 16.15C116.358 16.43 116.83 16.83 117.182 17.35C117.534 17.862 117.746 18.462 117.818 19.15H116.102C116.038 18.75 115.894 18.414 115.67 18.142C115.454 17.862 115.178 17.654 114.842 17.518C114.506 17.374 114.126 17.302 113.702 17.302C113.27 17.302 112.886 17.378 112.55 17.53C112.214 17.674 111.934 17.882 111.71 18.154C111.486 18.426 111.314 18.746 111.194 19.114C111.082 19.482 111.026 19.89 111.026 20.338C111.026 20.77 111.082 21.17 111.194 21.538C111.314 21.906 111.49 22.23 111.722 22.51C111.954 22.782 112.238 22.994 112.574 23.146C112.918 23.298 113.314 23.374 113.762 23.374C114.418 23.374 114.97 23.214 115.418 22.894C115.874 22.566 116.15 22.11 116.246 21.526H117.962C117.882 22.15 117.67 22.722 117.326 23.242C116.982 23.762 116.51 24.178 115.91 24.49C115.31 24.802 114.594 24.958 113.762 24.958ZM119.4 24.73V15.97H121.068V24.73H119.4ZM120.828 24.73V23.29H124.8V24.73H120.828ZM120.828 20.998V19.558H124.488V20.998H120.828ZM120.828 17.41V15.97H124.704V17.41H120.828ZM129.139 24.73V15.91H130.843V24.73H129.139ZM134.491 24.73L131.803 20.914H133.711L136.483 24.73H134.491ZM130.339 21.802V20.422H132.571C132.883 20.422 133.151 20.358 133.375 20.23C133.607 20.102 133.787 19.922 133.915 19.69C134.043 19.458 134.107 19.194 134.107 18.898C134.107 18.594 134.043 18.326 133.915 18.094C133.787 17.862 133.607 17.682 133.375 17.554C133.151 17.426 132.883 17.362 132.571 17.362H130.339V15.91H132.391C133.095 15.91 133.703 16.014 134.215 16.222C134.735 16.43 135.135 16.746 135.415 17.17C135.695 17.594 135.835 18.126 135.835 18.766V18.958C135.835 19.606 135.691 20.138 135.403 20.554C135.123 20.97 134.727 21.282 134.215 21.49C133.703 21.698 133.095 21.802 132.391 21.802H130.339ZM137.775 24.73V15.97H139.443V24.73H137.775ZM139.203 24.73V23.29H143.175V24.73H139.203ZM139.203 20.998V19.558H142.863V20.998H139.203ZM139.203 17.41V15.97H143.079V17.41H139.203ZM146.388 22.042V20.566H148.092C148.436 20.566 148.724 20.498 148.956 20.362C149.196 20.226 149.376 20.038 149.496 19.798C149.624 19.558 149.688 19.282 149.688 18.97C149.688 18.658 149.624 18.382 149.496 18.142C149.376 17.902 149.196 17.718 148.956 17.59C148.724 17.454 148.436 17.386 148.092 17.386H146.388V15.91H147.948C148.684 15.91 149.308 16.03 149.82 16.27C150.34 16.51 150.736 16.854 151.008 17.302C151.28 17.742 151.416 18.266 151.416 18.874V19.066C151.416 19.674 151.28 20.202 151.008 20.65C150.736 21.09 150.34 21.434 149.82 21.682C149.308 21.922 148.684 22.042 147.948 22.042H146.388ZM144.924 24.73V15.91H146.628V24.73H144.924ZM158.57 24.73V15.97H160.274V24.73H158.57ZM152.822 24.73V15.97H154.526V24.73H152.822ZM154.214 21.094V19.594H158.882V21.094H154.214ZM162.432 24.73V15.91H164.136V24.73H162.432ZM167.784 24.73L165.096 20.914H167.004L169.776 24.73H167.784ZM163.632 21.802V20.422H165.864C166.176 20.422 166.444 20.358 166.668 20.23C166.9 20.102 167.08 19.922 167.208 19.69C167.336 19.458 167.4 19.194 167.4 18.898C167.4 18.594 167.336 18.326 167.208 18.094C167.08 17.862 166.9 17.682 166.668 17.554C166.444 17.426 166.176 17.362 165.864 17.362H163.632V15.91H165.684C166.388 15.91 166.996 16.014 167.508 16.222C168.028 16.43 168.428 16.746 168.708 17.17C168.988 17.594 169.128 18.126 169.128 18.766V18.958C169.128 19.606 168.984 20.138 168.696 20.554C168.416 20.97 168.02 21.282 167.508 21.49C166.996 21.698 166.388 21.802 165.684 21.802H163.632ZM170.204 24.73L173.192 15.97H175.976L179.048 24.73H177.296L174.692 17.134L175.304 17.398H173.804L174.428 17.134L171.908 24.73H170.204ZM172.292 22.402L172.832 20.962H176.384L176.912 22.402H172.292ZM183.279 24.958C182.503 24.958 181.847 24.834 181.311 24.586C180.783 24.338 180.379 23.998 180.099 23.566C179.819 23.126 179.679 22.63 179.679 22.078H181.347C181.347 22.31 181.411 22.538 181.539 22.762C181.667 22.978 181.871 23.154 182.151 23.29C182.439 23.426 182.815 23.494 183.279 23.494C183.695 23.494 184.043 23.434 184.323 23.314C184.603 23.194 184.811 23.038 184.947 22.846C185.083 22.646 185.151 22.422 185.151 22.174C185.151 21.862 185.019 21.614 184.755 21.43C184.491 21.238 184.083 21.118 183.531 21.07L182.763 21.01C181.923 20.938 181.251 20.678 180.747 20.23C180.251 19.774 180.003 19.174 180.003 18.43C180.003 17.87 180.135 17.39 180.399 16.99C180.663 16.582 181.031 16.27 181.503 16.054C181.983 15.83 182.543 15.718 183.183 15.718C183.847 15.718 184.419 15.834 184.899 16.066C185.379 16.298 185.751 16.626 186.015 17.05C186.279 17.466 186.411 17.958 186.411 18.526H184.743C184.743 18.286 184.683 18.066 184.563 17.866C184.451 17.658 184.279 17.494 184.047 17.374C183.823 17.246 183.535 17.182 183.183 17.182C182.847 17.182 182.567 17.238 182.343 17.35C182.119 17.462 181.951 17.614 181.839 17.806C181.727 17.998 181.671 18.206 181.671 18.43C181.671 18.702 181.771 18.942 181.971 19.15C182.171 19.35 182.487 19.466 182.919 19.498L183.687 19.57C184.311 19.618 184.859 19.75 185.331 19.966C185.803 20.182 186.167 20.474 186.423 20.842C186.687 21.21 186.819 21.654 186.819 22.174C186.819 22.726 186.675 23.214 186.387 23.638C186.099 24.054 185.687 24.378 185.151 24.61C184.623 24.842 183.999 24.958 183.279 24.958ZM188.377 24.73V15.97H190.045V24.73H188.377ZM189.805 24.73V23.29H193.777V24.73H189.805ZM189.805 20.998V19.558H193.465V20.998H189.805ZM189.805 17.41V15.97H193.681V17.41H189.805ZM195.525 24.73V15.91H197.229V24.73H195.525ZM200.877 24.73L198.189 20.914H200.097L202.869 24.73H200.877ZM196.725 21.802V20.422H198.957C199.269 20.422 199.537 20.358 199.761 20.23C199.993 20.102 200.173 19.922 200.301 19.69C200.429 19.458 200.493 19.194 200.493 18.898C200.493 18.594 200.429 18.326 200.301 18.094C200.173 17.862 199.993 17.682 199.761 17.554C199.537 17.426 199.269 17.362 198.957 17.362H196.725V15.91H198.777C199.481 15.91 200.089 16.014 200.601 16.222C201.121 16.43 201.521 16.746 201.801 17.17C202.081 17.594 202.221 18.126 202.221 18.766V18.958C202.221 19.606 202.077 20.138 201.789 20.554C201.509 20.97 201.113 21.282 200.601 21.49C200.089 21.698 199.481 21.802 198.777 21.802H196.725Z" fill="url(#paint3_linear_654_10451)"/>
<defs>
<linearGradient id="paint0_linear_654_10451" x1="10.1367" y1="-0.382337" x2="53.383" y2="15.9177" gradientUnits="userSpaceOnUse">
<stop stop-color="white"/>
<stop offset="1" stop-color="white" stop-opacity="0"/>
</linearGradient>
<linearGradient id="paint1_linear_654_10451" x1="25.4575" y1="5.74609" x2="65.0734" y2="25.4237" gradientUnits="userSpaceOnUse">
<stop stop-color="white"/>
<stop offset="1" stop-color="white" stop-opacity="0"/>
</linearGradient>
<linearGradient id="paint2_linear_654_10451" x1="39.4078" y1="-0.382339" x2="78.1524" y2="12.6265" gradientUnits="userSpaceOnUse">
<stop stop-color="white"/>
<stop offset="1" stop-color="white" stop-opacity="0"/>
</linearGradient>
<linearGradient id="paint3_linear_654_10451" x1="126.165" y1="11" x2="141.38" y2="61.7792" gradientUnits="userSpaceOnUse">
<stop stop-color="white"/>
<stop offset="1" stop-color="#DBDBDB" stop-opacity="0"/>
</linearGradient>
<clipPath id="clip0_654_10451">
<rect width="48.2149" height="25.46" fill="white" transform="translate(0 0.27002)"/>
</clipPath>
</defs>
</svg>
