<svg width="20" height="20" viewBox="0 0 20 20" fill="none" xmlns="http://www.w3.org/2000/svg">
<path fill-rule="evenodd" clip-rule="evenodd" d="M9.30657 4.75306L7.41657 4.87406L6.79957 3.05706C6.77157 2.97406 6.64957 2.98306 6.63957 3.07706L6.34557 5.25606L4.78557 6.36506C4.71957 6.41106 4.74757 6.50506 4.83257 6.51406L6.44957 6.64406L7.12157 8.25606C7.14957 8.33006 7.26357 8.32106 7.28157 8.23606L7.66957 6.30906L9.37257 4.89306C9.42857 4.84606 9.38257 4.74306 9.30557 4.75306H9.30657ZM8.99457 12.3831L6.51957 12.5521L5.70957 10.1661C5.67257 10.0601 5.51057 10.0691 5.49257 10.1841L5.10557 13.0481L3.04457 14.5121C3.02676 14.525 3.01332 14.543 3.00606 14.5638C2.99879 14.5846 2.99804 14.6071 3.00392 14.6283C3.00979 14.6495 3.022 14.6684 3.03892 14.6825C3.05584 14.6966 3.07665 14.7051 3.09857 14.7071L5.23157 14.8751L6.11457 16.9951C6.15957 17.0921 6.30357 17.0831 6.33057 16.9771L6.83457 14.4411L9.06657 12.5781C9.0856 12.5642 9.09958 12.5446 9.1064 12.522C9.11322 12.4995 9.1125 12.4754 9.10435 12.4533C9.0962 12.4313 9.08107 12.4124 9.06125 12.3998C9.04144 12.3871 9.01803 12.3812 8.99457 12.3831ZM13.9376 7.09006L17.8146 6.83006C17.9846 6.82006 18.0696 7.02506 17.9286 7.12806L14.4286 10.0431L13.6346 14.0211C13.6066 14.1801 13.3696 14.2071 13.3046 14.0491L11.9226 10.7331L8.58457 10.4721C8.42457 10.4621 8.36657 10.2581 8.49957 10.1651L11.7246 7.87306L12.3296 3.38306C12.3576 3.20606 12.6136 3.17806 12.6696 3.35506L13.9376 7.09006Z" fill="black"/>
</svg>
